<?xml version="1.0" standalone="no"?>
<!DOCTYPE svg PUBLIC "-//W3C//DTD SVG 20010904//EN"
 "http://www.w3.org/TR/2001/REC-SVG-20010904/DTD/svg10.dtd">
<svg version="1.0" xmlns="http://www.w3.org/2000/svg"
 width="1879.000000pt" height="774.000000pt" viewBox="0 0 1879.000000 774.000000"
 preserveAspectRatio="xMidYMid meet">

<g transform="translate(0.000000,774.000000) scale(0.100000,-0.100000)"
fill="#000000" stroke="none">
<path d="M3355 7504 c-176 -23 -390 -63 -480 -89 -300 -85 -505 -169 -740
-303 -600 -342 -1073 -881 -1337 -1522 -97 -237 -158 -461 -205 -760 -21 -136
-29 -539 -13 -687 7 -65 14 -130 15 -144 3 -25 14 -82 41 -214 113 -533 363
-1023 733 -1435 104 -116 93 -105 221 -219 168 -151 345 -279 530 -385 47 -27
96 -56 110 -65 48 -30 236 -112 360 -158 157 -57 251 -85 405 -118 291 -62
358 -69 660 -68 267 1 356 9 585 52 343 65 667 188 987 374 72 42 135 77 139
77 3 0 322 -317 709 -703 386 -387 730 -726 766 -754 91 -72 169 -98 289 -97
143 1 254 46 351 143 78 79 139 219 139 323 0 48 -22 159 -42 213 -26 71 -154
207 -798 850 -374 374 -680 685 -680 690 0 6 21 40 47 75 115 158 300 484 356
627 9 23 25 61 36 85 27 61 95 284 125 408 28 118 49 237 67 385 17 129 16
604 0 705 -86 529 -198 849 -438 1245 -129 213 -289 413 -477 600 -411 406
-959 700 -1526 815 -247 51 -266 52 -590 55 -173 2 -328 1 -345 -1z m445 -824
c314 -23 590 -96 859 -229 227 -112 393 -233 597 -436 252 -250 409 -495 526
-820 35 -98 84 -265 94 -320 33 -186 40 -277 37 -515 -4 -267 -43 -470 -143
-740 -120 -325 -298 -585 -596 -872 -282 -271 -731 -487 -1159 -558 -258 -43
-612 -30 -860 32 -44 11 -96 24 -115 28 -65 17 -255 88 -345 130 -156 73 -377
211 -438 272 -10 10 -22 18 -27 18 -16 0 -283 274 -351 360 -88 111 -179 260
-255 417 -35 72 -64 135 -64 140 0 5 -13 43 -30 86 -98 256 -144 596 -122 906
11 151 31 289 51 361 5 19 13 46 16 60 81 298 207 555 391 800 82 109 298 323
427 423 112 86 238 164 378 233 99 48 155 71 294 119 61 21 231 65 271 70 19
2 61 9 92 15 49 9 205 24 307 29 17 0 91 -3 165 -9z"/>
<path d="M2740 5734 c-75 -20 -154 -74 -191 -132 -17 -26 -93 -195 -168 -377
l-138 -330 -54 1 c-30 1 -100 5 -157 9 -113 9 -127 4 -159 -59 -22 -42 -22
-162 0 -203 22 -42 89 -81 157 -90 62 -9 70 -23 46 -75 -112 -242 -128 -506
-42 -700 54 -122 121 -207 221 -281 l70 -52 5 -131 c5 -141 14 -167 67 -201
23 -15 50 -18 168 -18 121 0 144 3 168 19 47 32 57 64 57 180 0 57 3 111 6
120 6 14 88 16 830 16 l824 0 0 -109 c0 -125 13 -167 62 -203 31 -21 42 -23
174 -23 138 0 141 0 177 28 46 35 57 74 57 204 l0 102 53 34 c111 72 223 221
273 367 65 186 48 419 -46 637 -23 54 -21 73 9 73 9 0 40 7 68 15 121 36 165
161 102 293 -30 61 -56 72 -154 61 -44 -4 -112 -11 -152 -15 l-72 -7 -20 44
c-16 35 -148 344 -190 444 -77 183 -103 231 -152 277 -28 26 -75 57 -107 70
l-57 23 -840 2 c-716 2 -848 0 -895 -13z m1724 -239 c38 -16 44 -25 115 -197
6 -13 24 -54 40 -91 17 -38 31 -72 31 -76 0 -4 6 -21 14 -37 33 -66 106 -248
106 -264 0 -10 -7 -21 -16 -24 -9 -3 -523 -6 -1144 -6 -1237 0 -1169 -3 -1137
57 8 15 32 69 53 118 20 50 48 113 60 142 13 28 44 103 70 165 65 159 80 186
117 208 31 19 56 20 843 20 704 0 816 -2 848 -15z m-1796 -1087 c99 -25 170
-145 144 -242 -51 -182 -284 -219 -382 -61 -19 31 -22 47 -19 114 3 67 8 83
32 114 27 36 67 62 117 78 37 11 56 10 108 -3z m2041 -18 c24 -12 53 -38 69
-63 23 -36 27 -52 27 -119 0 -70 -2 -79 -31 -114 -41 -51 -73 -74 -120 -85
-89 -21 -184 23 -231 106 -29 52 -31 131 -3 184 23 45 82 97 125 111 43 13
117 4 164 -20z"/>
<path d="M7070 4527 c0 -941 2 -1001 39 -1195 50 -258 204 -529 382 -675 192
-157 393 -242 705 -296 80 -14 441 -14 518 0 142 26 317 74 398 110 95 42 224
123 304 190 153 131 285 346 352 574 59 202 62 269 62 1295 l0 920 -345 0
-345 0 0 -867 c-1 -478 -5 -915 -10 -972 -28 -305 -131 -491 -330 -591 -113
-57 -178 -71 -335 -71 -191 0 -321 34 -431 112 -79 58 -176 200 -209 309 -48
158 -47 139 -52 1138 l-4 942 -349 0 -350 0 0 -923z"/>
<path d="M11421 5428 c-5 -13 -29 -69 -55 -126 -25 -56 -46 -104 -46 -106 0
-3 -15 -37 -34 -78 -38 -84 -56 -122 -121 -268 -26 -58 -58 -129 -71 -158 -13
-29 -24 -54 -24 -57 0 -2 -13 -32 -29 -67 -16 -35 -50 -110 -76 -168 -26 -58
-55 -123 -65 -145 -10 -22 -53 -119 -95 -215 -43 -96 -90 -202 -105 -235 -56
-122 -69 -153 -123 -275 -56 -129 -76 -174 -133 -298 -19 -41 -34 -75 -34 -77
0 -2 -15 -36 -34 -77 -18 -40 -48 -107 -66 -148 -18 -41 -48 -108 -66 -148
-19 -41 -34 -75 -34 -77 0 -2 -13 -32 -29 -67 -16 -35 -45 -98 -65 -141 -20
-43 -36 -83 -36 -88 0 -6 139 -8 357 -7 l357 3 52 125 c29 69 57 136 63 150 5
14 17 43 26 65 9 22 20 49 24 60 20 46 51 121 79 190 l21 50 716 0 717 0 19
-50 c11 -27 23 -59 28 -70 13 -30 29 -69 127 -307 l89 -218 368 0 c202 0 367
2 367 4 0 2 -18 43 -41 92 -22 49 -46 103 -54 119 -7 17 -29 65 -49 108 -20
43 -36 80 -36 82 0 2 -15 36 -34 77 -18 40 -77 172 -131 293 -54 121 -110 247
-125 280 -58 127 -84 185 -188 420 -19 44 -47 107 -62 140 -48 107 -67 148
-115 255 -26 58 -58 129 -71 158 -13 29 -24 54 -24 57 0 2 -16 39 -36 82 -20
43 -49 106 -65 141 -16 35 -29 65 -29 67 0 2 -15 36 -34 77 -50 109 -70 153
-116 258 -23 52 -48 109 -55 125 -7 17 -25 57 -40 90 -15 33 -34 75 -42 93
l-15 32 -349 0 -349 0 -9 -22z m369 -689 c0 -6 11 -35 25 -65 14 -30 25 -57
25 -60 0 -3 11 -30 25 -60 14 -30 25 -57 25 -60 0 -3 6 -20 14 -37 41 -92 356
-859 356 -867 0 -6 -174 -10 -485 -10 -267 0 -485 3 -485 6 0 5 245 601 276
671 8 17 14 34 14 37 0 3 11 30 25 60 14 30 25 57 25 60 0 3 11 30 25 60 14
30 25 57 25 60 0 3 11 29 23 58 13 29 34 79 47 110 12 32 26 55 31 52 5 -3 9
-10 9 -15z"/>
<path d="M13820 3926 l0 -1526 350 0 350 0 0 128 c1 70 2 258 3 417 l2 290
405 6 c390 6 540 17 655 49 397 108 630 280 778 575 72 144 97 268 97 480 0
216 -25 336 -102 490 -54 106 -87 154 -171 242 -74 78 -165 147 -250 189 -29
15 -58 31 -65 37 -31 25 -256 95 -397 124 -69 14 -188 17 -867 20 l-788 4 0
-1525z m1477 939 c230 -41 385 -166 437 -354 24 -85 24 -247 0 -332 -40 -145
-149 -259 -299 -314 -122 -44 -187 -50 -560 -50 l-350 0 -2 520 c-2 286 -1
526 2 533 7 19 661 17 772 -3z"/>
</g>
</svg>
